<?xml version="1.0" standalone="no"?><!DOCTYPE svg PUBLIC "-//W3C//DTD SVG 1.1//EN" "http://www.w3.org/Graphics/SVG/1.1/DTD/svg11.dtd"><svg t="1723962107276" class="icon" viewBox="0 0 1024 1024" version="1.1" xmlns="http://www.w3.org/2000/svg" p-id="22781" xmlns:xlink="http://www.w3.org/1999/xlink" width="200" height="200"><path d="M279.272727 81.454545A151.272727 151.272727 0 0 0 128 232.727273v650.658909a58.181818 58.181818 0 0 0 90.298182 48.500363l169.704727-112.314181a221.090909 221.090909 0 0 1 242.967273-0.698182l175.010909 114.408727a58.181818 58.181818 0 0 0 90.018909-48.733091V232.727273A151.272727 151.272727 0 0 0 744.727273 81.454545H279.272727z m0-69.818181h465.454546A221.090909 221.090909 0 0 1 965.818182 232.727273v651.822545a128 128 0 0 1-198.004364 107.194182l-175.057454-114.408727a151.272727 151.272727 0 0 0-166.213819 0.465454l-169.704727 112.314182A128 128 0 0 1 58.181818 883.432727V232.727273A221.090909 221.090909 0 0 1 279.272727 11.636364z" fill="#373737" p-id="22782"></path><path d="M523.077818 311.063273c47.476364-43.054545 103.982545-53.992727 156.951273-32.116364 49.245091 20.386909 72.750545 68.421818 72.750545 143.732364 0 84.433455-72.517818 166.027636-212.340363 249.716363l-17.826909 10.705455-17.92-10.705455C363.938909 588.8 290.909091 507.205818 290.909091 422.725818c0-78.429091 26.065455-121.204364 77.870545-143.546182 52.596364-22.667636 107.52-12.241455 154.298182 31.930182z m159.883637 111.616c0-49.803636-10.519273-71.307636-29.60291-79.220364-33.652364-13.917091-69.492364-2.792727-103.144727 40.96l-28.206545 36.677818-27.554909-37.189818c-33.047273-44.637091-65.489455-54.644364-98.024728-40.634182-25.274182 10.891636-35.700364 27.927273-35.700363 79.406546 0 49.896727 52.410182 110.964364 161.745454 178.874182 108.450909-67.863273 160.488727-128.930909 160.488728-178.874182z" fill="#373737" p-id="22783"></path></svg>