<?xml version="1.0" standalone="no"?><!DOCTYPE svg PUBLIC "-//W3C//DTD SVG 1.1//EN" "http://www.w3.org/Graphics/SVG/1.1/DTD/svg11.dtd"><svg t="1725354951057" class="icon" viewBox="0 0 1024 1024" version="1.1" xmlns="http://www.w3.org/2000/svg" p-id="10225" xmlns:xlink="http://www.w3.org/1999/xlink" width="200" height="200"><path d="M170.666667 426.666667c235.648 0 426.666667 191.018667 426.666666 426.666666a42.666667 42.666667 0 0 1-85.333333 0 341.333333 341.333333 0 0 0-341.333333-341.333333 42.666667 42.666667 0 0 1 0-85.333333z m0-298.666667c400.597333 0 725.333333 324.736 725.333333 725.333333a42.666667 42.666667 0 0 1-85.333333 0c0-353.450667-286.549333-640-640-640a42.666667 42.666667 0 1 1 0-85.333333z m42.666666 597.333333a85.333333 85.333333 0 1 1 0 170.666667 85.333333 85.333333 0 0 1 0-170.666667z" fill="#000000" p-id="10226"></path></svg>