<?xml version="1.0" standalone="no"?><!DOCTYPE svg PUBLIC "-//W3C//DTD SVG 1.1//EN" "http://www.w3.org/Graphics/SVG/1.1/DTD/svg11.dtd"><svg t="1723882771772" class="icon" viewBox="0 0 1024 1024" version="1.1" xmlns="http://www.w3.org/2000/svg" p-id="34104" xmlns:xlink="http://www.w3.org/1999/xlink" width="200" height="200"><path d="M512 836.266667c-179.2 0-324.266667-145.066667-324.266667-324.266667s145.066667-324.266667 324.266667-324.266667 324.266667 145.066667 324.266667 324.266667-145.066667 324.266667-324.266667 324.266667z m0-580.266667c-141.653333 0-256 114.346667-256 256s114.346667 256 256 256 256-114.346667 256-256-114.346667-256-256-256zM512 141.653333c-18.773333 0-34.133333-15.36-34.133333-34.133333V34.133333c0-18.773333 15.36-34.133333 34.133333-34.133333s34.133333 15.36 34.133333 34.133333v73.386667c0 18.773333-15.36 34.133333-34.133333 34.133333zM512 1024c-18.773333 0-34.133333-15.36-34.133333-34.133333v-73.386667c0-18.773333 15.36-34.133333 34.133333-34.133333s34.133333 15.36 34.133333 34.133333V989.866667c0 18.773333-15.36 34.133333-34.133333 34.133333zM226.986667 259.413333c-8.533333 0-17.066667-3.413333-23.893334-10.24l-51.2-51.2c-13.653333-13.653333-13.653333-34.133333 0-47.786666 13.653333-13.653333 34.133333-13.653333 47.786667 0l51.2 51.2c13.653333 13.653333 13.653333 34.133333 0 47.786666-6.826667 8.533333-15.36 10.24-23.893333 10.24zM849.92 884.053333c-8.533333 0-17.066667-3.413333-23.893333-10.24l-52.906667-51.2c-13.653333-13.653333-13.653333-34.133333 0-47.786666 13.653333-13.653333 34.133333-13.653333 47.786667 0l52.906666 51.2c13.653333 13.653333 13.653333 34.133333 0 47.786666-6.826667 6.826667-15.36 10.24-23.893333 10.24zM107.52 546.133333H34.133333c-18.773333 0-34.133333-15.36-34.133333-34.133333s15.36-34.133333 34.133333-34.133333h73.386667c18.773333 0 34.133333 15.36 34.133333 34.133333s-15.36 34.133333-34.133333 34.133333zM989.866667 546.133333h-73.386667c-18.773333 0-34.133333-15.36-34.133333-34.133333s15.36-34.133333 34.133333-34.133333H989.866667c18.773333 0 34.133333 15.36 34.133333 34.133333s-15.36 34.133333-34.133333 34.133333z" fill="#040000" p-id="34105"></path><path d="M174.08 884.053333c-8.533333 0-17.066667-3.413333-23.893333-10.24-13.653333-13.653333-13.653333-34.133333 0-47.786666l51.2-51.2c13.653333-13.653333 34.133333-13.653333 47.786666 0 13.653333 13.653333 13.653333 34.133333 0 47.786666l-51.2 51.2c-6.826667 6.826667-15.36 10.24-23.893333 10.24zM797.013333 259.413333c-8.533333 0-17.066667-3.413333-23.893333-10.24-13.653333-13.653333-13.653333-34.133333 0-47.786666l52.906667-51.2c13.653333-13.653333 34.133333-13.653333 47.786666 0 13.653333 13.653333 13.653333 34.133333 0 47.786666l-52.906666 51.2c-5.12 8.533333-13.653333 10.24-23.893334 10.24z" fill="#040000" p-id="34106"></path><path d="M512 221.866667c-27.306667 0-54.613333 3.413333-80.213333 11.946666-34.133333 44.373333-56.32 98.986667-56.32 158.72 0 141.653333 114.346667 256 256 256 59.733333 0 114.346667-20.48 158.72-56.32 6.826667-25.6 11.946667-52.906667 11.946666-80.213333 0-160.426667-129.706667-290.133333-290.133333-290.133333z" fill="#040000" p-id="34107"></path></svg>